<svg width="1200" height="420" viewBox="0 0 1200 420" fill="none" xmlns="http://www.w3.org/2000/svg">
  <defs>
    <linearGradient id="g3" x1="80" y1="28" x2="1090" y2="410" gradientUnits="userSpaceOnUse">
      <stop stop-color="#8C2D3A"/>
      <stop offset="1" stop-color="#2A1A3E"/>
    </linearGradient>
  </defs>
  <rect width="1200" height="420" rx="28" fill="url(#g3)"/>
  <circle cx="1100" cy="98" r="124" fill="white" fill-opacity="0.08"/>
  <circle cx="1010" cy="336" r="152" fill="white" fill-opacity="0.05"/>

  <rect x="74" y="82" width="402" height="256" rx="18" fill="white" fill-opacity="0.12"/>
  <path d="M128 288L198 196L258 242L340 152L426 216" stroke="#FFD7A6" stroke-width="8" stroke-linecap="round" stroke-linejoin="round"/>
  <circle cx="198" cy="196" r="10" fill="#FFB563"/>
  <circle cx="258" cy="242" r="10" fill="#FFB563"/>
  <circle cx="340" cy="152" r="10" fill="#FF8A63"/>
  <circle cx="426" cy="216" r="10" fill="#FF8A63"/>

  <rect x="518" y="90" width="610" height="246" rx="20" fill="white" fill-opacity="0.11"/>
  <rect x="552" y="124" width="268" height="58" rx="12" fill="#FFD5A9" fill-opacity="0.88"/>
  <rect x="836" y="124" width="258" height="58" rx="12" fill="#FFB0A8" fill-opacity="0.78"/>
  <rect x="552" y="198" width="542" height="108" rx="14" fill="#FFFFFF" fill-opacity="0.18"/>
  <rect x="580" y="226" width="220" height="18" rx="9" fill="white" fill-opacity="0.74"/>
  <rect x="580" y="258" width="184" height="14" rx="7" fill="white" fill-opacity="0.52"/>
  <rect x="848" y="222" width="220" height="58" rx="12" fill="#A04C5F" fill-opacity="0.72"/>
  <rect x="868" y="242" width="180" height="18" rx="9" fill="white" fill-opacity="0.78"/>
</svg>
