<svg width="1200" height="420" viewBox="0 0 1200 420" fill="none" xmlns="http://www.w3.org/2000/svg">
  <defs>
    <linearGradient id="g1" x1="80" y1="20" x2="1120" y2="400" gradientUnits="userSpaceOnUse">
      <stop stop-color="#0E7A62"/>
      <stop offset="1" stop-color="#163B54"/>
    </linearGradient>
  </defs>
  <rect width="1200" height="420" rx="28" fill="url(#g1)"/>
  <circle cx="1060" cy="80" r="120" fill="white" fill-opacity="0.07"/>
  <circle cx="980" cy="340" r="160" fill="white" fill-opacity="0.05"/>

  <rect x="72" y="80" width="360" height="260" rx="18" fill="white" fill-opacity="0.14"/>
  <rect x="102" y="120" width="120" height="120" rx="60" fill="#8EF5D2" fill-opacity="0.32"/>
  <rect x="250" y="124" width="150" height="18" rx="9" fill="white" fill-opacity="0.75"/>
  <rect x="250" y="160" width="120" height="12" rx="6" fill="white" fill-opacity="0.56"/>
  <rect x="250" y="188" width="98" height="12" rx="6" fill="white" fill-opacity="0.56"/>
  <rect x="102" y="268" width="298" height="22" rx="11" fill="white" fill-opacity="0.66"/>

  <rect x="498" y="88" width="620" height="244" rx="20" fill="white" fill-opacity="0.1"/>
  <rect x="528" y="122" width="130" height="160" rx="12" fill="#6CE6B9"/>
  <rect x="678" y="154" width="130" height="128" rx="12" fill="#46D5A4"/>
  <rect x="828" y="134" width="130" height="148" rx="12" fill="#2FB98D"/>
  <rect x="978" y="174" width="110" height="108" rx="12" fill="#1F8A70"/>
</svg>
