<svg width="1200" height="420" viewBox="0 0 1200 420" fill="none" xmlns="http://www.w3.org/2000/svg">
  <defs>
    <linearGradient id="g2" x1="140" y1="40" x2="1060" y2="390" gradientUnits="userSpaceOnUse">
      <stop stop-color="#1B6BCE"/>
      <stop offset="1" stop-color="#0B2344"/>
    </linearGradient>
  </defs>
  <rect width="1200" height="420" rx="28" fill="url(#g2)"/>
  <circle cx="1120" cy="66" r="130" fill="white" fill-opacity="0.08"/>
  <circle cx="1020" cy="352" r="150" fill="white" fill-opacity="0.06"/>

  <rect x="74" y="78" width="486" height="264" rx="20" fill="white" fill-opacity="0.13"/>
  <rect x="106" y="114" width="420" height="194" rx="14" fill="#DDE8FF" fill-opacity="0.22"/>
  <rect x="130" y="142" width="118" height="138" rx="10" fill="#5FA2FF"/>
  <rect x="264" y="166" width="118" height="114" rx="10" fill="#4E91F2"/>
  <rect x="398" y="190" width="98" height="90" rx="10" fill="#3B7BD9"/>
  <path d="M130 288C188 246 236 214 298 196C350 181 402 179 496 154" stroke="#AEDDFF" stroke-width="6" stroke-linecap="round"/>

  <rect x="612" y="98" width="516" height="222" rx="18" fill="white" fill-opacity="0.12"/>
  <rect x="642" y="130" width="198" height="42" rx="12" fill="white" fill-opacity="0.8"/>
  <rect x="654" y="182" width="170" height="14" rx="7" fill="white" fill-opacity="0.56"/>
  <rect x="654" y="208" width="146" height="14" rx="7" fill="white" fill-opacity="0.56"/>
  <rect x="654" y="234" width="118" height="14" rx="7" fill="white" fill-opacity="0.56"/>
  <rect x="872" y="130" width="226" height="154" rx="14" fill="#77B0FF" fill-opacity="0.44"/>
  <rect x="896" y="156" width="178" height="20" rx="10" fill="white" fill-opacity="0.78"/>
  <rect x="896" y="192" width="146" height="14" rx="7" fill="white" fill-opacity="0.52"/>
  <rect x="896" y="218" width="122" height="14" rx="7" fill="white" fill-opacity="0.52"/>
</svg>
